<svg width="18" height="19" viewBox="0 0 18 19" fill="none" xmlns="http://www.w3.org/2000/svg">
<path d="M5 9.01V9M13 9.01V9M5 6V5C5 3.93913 5.42143 2.92172 6.17157 2.17157C6.92172 1.42143 7.93913 1 9 1C10.0609 1 11.0783 1.42143 11.8284 2.17157C12.5786 2.92172 13 3.93913 13 5V6M5 6H3.84027C2.80009 6 1.93356 6.79732 1.84718 7.83391L1.18051 15.8339C1.08334 16.9999 2.00352 18 3.1736 18H14.8264C15.9965 18 16.9167 16.9999 16.8195 15.8339L16.1528 7.83391C16.0664 6.79732 15.1999 6 14.1597 6H13M5 6H13" stroke="#001A72" stroke-width="1.5" stroke-linecap="round" stroke-linejoin="round"/>
</svg>
