<svg width="18" height="18" viewBox="0 0 18 18" fill="none" xmlns="http://www.w3.org/2000/svg">
<path d="M1 3C1 2.05719 1 1.58579 1.29289 1.29289C1.58579 1 2.05719 1 3 1H5C5.94281 1 6.41421 1 6.70711 1.29289C7 1.58579 7 2.05719 7 3V6C7 6.94281 7 7.41421 6.70711 7.70711C6.41421 8 5.94281 8 5 8H3C2.05719 8 1.58579 8 1.29289 7.70711C1 7.41421 1 6.94281 1 6V3Z" stroke="#222222" stroke-linejoin="round"/>
<path d="M1 14C1 13.0572 1 12.5858 1.29289 12.2929C1.58579 12 2.05719 12 3 12H5C5.94281 12 6.41421 12 6.70711 12.2929C7 12.5858 7 13.0572 7 14V15C7 15.9428 7 16.4142 6.70711 16.7071C6.41421 17 5.94281 17 5 17H3C2.05719 17 1.58579 17 1.29289 16.7071C1 16.4142 1 15.9428 1 15V14Z" stroke="#222222" stroke-linejoin="round"/>
<path d="M11 3C11 2.05719 11 1.58579 11.2929 1.29289C11.5858 1 12.0572 1 13 1H15C15.9428 1 16.4142 1 16.7071 1.29289C17 1.58579 17 2.05719 17 3V4C17 4.94281 17 5.41421 16.7071 5.70711C16.4142 6 15.9428 6 15 6H13C12.0572 6 11.5858 6 11.2929 5.70711C11 5.41421 11 4.94281 11 4V3Z" stroke="#222222" stroke-linejoin="round"/>
<path d="M11 12C11 11.0572 11 10.5858 11.2929 10.2929C11.5858 10 12.0572 10 13 10H15C15.9428 10 16.4142 10 16.7071 10.2929C17 10.5858 17 11.0572 17 12V15C17 15.9428 17 16.4142 16.7071 16.7071C16.4142 17 15.9428 17 15 17H13C12.0572 17 11.5858 17 11.2929 16.7071C11 16.4142 11 15.9428 11 15V12Z" stroke="#222222" stroke-linejoin="round"/>
</svg>
