<svg width="14" height="17" viewBox="0 0 14 17" fill="none" xmlns="http://www.w3.org/2000/svg">
<mask id="path-1-inside-1_1755_12" fill="white">
<path d="M0 8.75961C0 7.40185 0 6.72297 0.274461 6.12623C0.548923 5.52949 1.06437 5.08769 2.09525 4.20407L3.09525 3.34693C4.95857 1.7498 5.89023 0.951233 7 0.951233C8.10977 0.951233 9.04143 1.7498 10.9047 3.34693L11.9047 4.20407C12.9356 5.08769 13.4511 5.52949 13.7255 6.12623C14 6.72297 14 7.40185 14 8.75961V13C14 14.8856 14 15.8284 13.4142 16.4142C12.8284 17 11.8856 17 10 17H4C2.11438 17 1.17157 17 0.585786 16.4142C0 15.8284 0 14.8856 0 13V8.75961Z"/>
</mask>
<path d="M8.5 17C8.5 17.5523 8.94772 18 9.5 18C10.0523 18 10.5 17.5523 10.5 17H8.5ZM3.5 17C3.5 17.5523 3.94772 18 4.5 18C5.05228 18 5.5 17.5523 5.5 17H3.5ZM5.5 12H8.5V10H5.5V12ZM8.5 12V17H10.5V12H8.5ZM3.5 12V17H5.5V12H3.5ZM8.5 12H10.5C10.5 10.8954 9.60457 10 8.5 10V12ZM5.5 10C4.39543 10 3.5 10.8954 3.5 12H5.5V10ZM3.09525 3.34693L4.39683 4.86544L4.39683 4.86544L3.09525 3.34693ZM10.9047 3.34693L9.60317 4.86544L9.60317 4.86544L10.9047 3.34693ZM11.9047 4.20407L13.2063 2.68556L13.2063 2.68556L11.9047 4.20407ZM2.09525 4.20407L0.793669 2.68556L0.793669 2.68556L2.09525 4.20407ZM12 8.75961V13H16V8.75961H12ZM10 15H4V19H10V15ZM2 13V8.75961H-2V13H2ZM3.39683 5.72258L4.39683 4.86544L1.79367 1.82841L0.793669 2.68556L3.39683 5.72258ZM9.60317 4.86544L10.6032 5.72258L13.2063 2.68556L12.2063 1.82841L9.60317 4.86544ZM4.39683 4.86544C5.36777 4.03321 5.95691 3.53308 6.43243 3.21902C6.86114 2.93587 6.98568 2.95123 7 2.95123L7 -1.04877C5.90455 -1.04877 5.00837 -0.634123 4.22799 -0.118709C3.4944 0.365794 2.68605 1.06352 1.79367 1.82841L4.39683 4.86544ZM12.2063 1.82841C11.314 1.06352 10.5056 0.365794 9.77201 -0.118709C8.99163 -0.634123 8.09545 -1.04877 7 -1.04877L7 2.95123C7.01432 2.95123 7.13886 2.93587 7.56757 3.21902C8.04309 3.53308 8.63223 4.03321 9.60317 4.86544L12.2063 1.82841ZM4 15C3.00065 15 2.45234 14.9958 2.07195 14.9446C1.7491 14.9012 1.85936 14.8594 2 15L-0.828427 17.8284C-0.101996 18.5549 0.772556 18.8059 1.53896 18.9089C2.24783 19.0042 3.11373 19 4 19V15ZM-2 13C-2 13.8863 -2.00425 14.7522 -1.90894 15.461C-1.8059 16.2274 -1.55486 17.102 -0.828427 17.8284L2 15C2.14064 15.1406 2.0988 15.2509 2.05539 14.928C2.00425 14.5477 2 13.9993 2 13H-2ZM12 13C12 13.9993 11.9958 14.5477 11.9446 14.928C11.9012 15.2509 11.8594 15.1406 12 15L14.8284 17.8284C15.5549 17.102 15.8059 16.2274 15.9089 15.461C16.0042 14.7522 16 13.8863 16 13H12ZM10 19C10.8863 19 11.7522 19.0042 12.461 18.9089C13.2274 18.8059 14.102 18.5549 14.8284 17.8284L12 15C12.1406 14.8594 12.2509 14.9012 11.928 14.9446C11.5477 14.9958 10.9993 15 10 15V19ZM16 8.75961C16 7.58488 16.0428 6.37809 15.5426 5.29052L11.9085 6.96195C11.9572 7.06786 12 7.21882 12 8.75961H16ZM10.6032 5.72258C11.773 6.72531 11.8598 6.85604 11.9085 6.96195L15.5426 5.29052C15.0424 4.20295 14.0983 3.45006 13.2063 2.68556L10.6032 5.72258ZM2 8.75961C2 7.21882 2.04278 7.06786 2.09149 6.96195L-1.54256 5.29052C-2.04278 6.37809 -2 7.58488 -2 8.75961H2ZM0.793669 2.68556C-0.0982489 3.45006 -1.04235 4.20295 -1.54256 5.29052L2.09149 6.96195C2.1402 6.85604 2.22698 6.72531 3.39683 5.72258L0.793669 2.68556Z" fill="#33363F" mask="url(#path-1-inside-1_1755_12)"/>
</svg>
