<svg width="22" height="19" viewBox="0 0 22 19" fill="none" xmlns="http://www.w3.org/2000/svg">
<path d="M3.45065 10.9082L10.4033 17.4395C10.6428 17.6644 10.7625 17.7769 10.9037 17.8046C10.9673 17.8171 11.0327 17.8171 11.0963 17.8046C11.2374 17.7769 11.3572 17.6644 11.5967 17.4395L18.5493 10.9082C20.5055 9.0706 20.743 6.04661 19.0978 3.92608L18.7884 3.52735C16.8202 0.99059 12.8696 1.41602 11.4866 4.31366C11.2913 4.72297 10.7087 4.72297 10.5133 4.31366C9.13034 1.41602 5.17969 0.990594 3.21151 3.52736L2.90216 3.92608C1.25692 6.04661 1.49447 9.0706 3.45065 10.9082Z" fill="#222222" stroke="#222222" stroke-width="2"/>
</svg>
