<svg width="16" height="17" viewBox="0 0 16 17" fill="none" xmlns="http://www.w3.org/2000/svg">
<path d="M5 4.5C4.72386 4.5 4.5 4.72386 4.5 5C4.5 5.27614 4.72386 5.5 5 5.5H11C11.2761 5.5 11.5 5.27614 11.5 5C11.5 4.72386 11.2761 4.5 11 4.5H5ZM5 8.5C4.72386 8.5 4.5 8.72386 4.5 9C4.5 9.27614 4.72386 9.5 5 9.5H8C8.27614 9.5 8.5 9.27614 8.5 9C8.5 8.72386 8.27614 8.5 8 8.5H5ZM9.99782 13.4986C9.79328 13.4995 9.61787 13.6231 9.54122 13.7995L8.44721 15.9875C8.26295 16.3561 7.73705 16.3561 7.55279 15.9875L6.45878 13.7995C6.38212 13.6231 6.20671 13.4995 6.00218 13.4986C4.92095 13.4939 4.11704 13.4725 3.47869 13.3843C2.84838 13.2971 2.41252 13.1487 2.0555 12.9101C1.67334 12.6548 1.34521 12.3267 1.08986 11.9445C0.816839 11.5359 0.661941 11.0244 0.581698 10.2355C0.500604 9.43838 0.5 8.41487 0.5 7C0.5 5.58513 0.500604 4.56162 0.581698 3.76445C0.661941 2.97564 0.816839 2.4641 1.08986 2.0555C1.34521 1.67334 1.67334 1.34521 2.0555 1.08986C2.4641 0.816839 2.97564 0.661941 3.76445 0.581698C4.56162 0.500604 5.58513 0.5 7 0.5H9C10.4149 0.5 11.4384 0.500604 12.2355 0.581698C13.0244 0.661941 13.5359 0.816839 13.9445 1.08986C14.3267 1.34521 14.6548 1.67334 14.9101 2.0555C15.1832 2.4641 15.3381 2.97564 15.4183 3.76445C15.4994 4.56162 15.5 5.58513 15.5 7C15.5 8.41487 15.4994 9.43838 15.4183 10.2355C15.3381 11.0244 15.1832 11.5359 14.9101 11.9445C14.6548 12.3267 14.3267 12.6548 13.9445 12.9101C13.5875 13.1487 13.1516 13.2971 12.5213 13.3843C11.883 13.4725 11.079 13.4939 9.99782 13.4986Z" stroke="#222222" stroke-linecap="round" stroke-linejoin="round"/>
</svg>
