<svg width="20" height="22" viewBox="0 0 20 22" fill="none" xmlns="http://www.w3.org/2000/svg">
<path fill-rule="evenodd" clip-rule="evenodd" d="M9.99997 0.484589C9.34253 0.484589 8.77058 0.906168 7.62667 1.74933L5.90576 3.01778C5.72555 3.15061 5.63545 3.21702 5.53871 3.27288C5.44198 3.32873 5.33941 3.37355 5.13427 3.4632L3.1753 4.31932C1.87315 4.8884 1.22208 5.17294 0.893356 5.74229C0.564637 6.31165 0.643758 7.01777 0.802 8.43L1.04006 10.5546C1.06499 10.7771 1.07745 10.8883 1.07745 11C1.07745 11.1117 1.06499 11.2229 1.04006 11.4454L0.802 13.57C0.643758 14.9822 0.564637 15.6883 0.893357 16.2577C1.22208 16.8271 1.87315 17.1116 3.1753 17.6807L5.13427 18.5368C5.33941 18.6264 5.44198 18.6713 5.53871 18.7271C5.63545 18.783 5.72555 18.8494 5.90576 18.9822L7.62667 20.2507C8.77058 21.0938 9.34253 21.5154 9.99997 21.5154C10.6574 21.5154 11.2294 21.0938 12.3733 20.2507L14.0942 18.9822C14.2744 18.8494 14.3645 18.783 14.4612 18.7271C14.558 18.6713 14.6605 18.6264 14.8657 18.5368L16.8246 17.6807C18.1268 17.1116 18.7779 16.8271 19.1066 16.2577C19.4353 15.6883 19.3562 14.9822 19.1979 13.57L18.9599 11.4454C18.935 11.223 18.9225 11.1117 18.9225 11C18.9225 10.8883 18.9349 10.7771 18.9599 10.5546L19.1979 8.43001C19.3562 7.01777 19.4353 6.31165 19.1066 5.74229C18.7779 5.17294 18.1268 4.8884 16.8246 4.31932L14.8657 3.4632C14.6605 3.37355 14.558 3.32872 14.4612 3.27288C14.3645 3.21702 14.2744 3.15061 14.0942 3.01778L12.3733 1.74933C11.2294 0.906168 10.6574 0.484589 9.99997 0.484589ZM9.99997 15C12.2091 15 14 13.2091 14 11C14 8.79086 12.2091 7 9.99997 7C7.79083 7 5.99997 8.79086 5.99997 11C5.99997 13.2091 7.79083 15 9.99997 15Z" fill="#222222"/>
</svg>
