<svg width="22" height="20" viewBox="0 0 22 20" fill="none" xmlns="http://www.w3.org/2000/svg">
<path d="M2.0817 11.9445C1.55299 10.9941 1.28864 10.5188 1.28864 10C1.28864 9.48116 1.55299 9.00594 2.0817 8.0555L3.43095 5.63L4.85687 3.24876C5.41562 2.31567 5.69499 1.84912 6.14432 1.5897C6.59366 1.33027 7.13739 1.3216 8.22485 1.30426L11 1.26L13.7752 1.30426C14.8626 1.3216 15.4064 1.33027 15.8557 1.5897C16.305 1.84912 16.5844 2.31567 17.1432 3.24876L18.5691 5.63L19.9183 8.05549C20.447 9.00594 20.7114 9.48116 20.7114 10C20.7114 10.5188 20.447 10.9941 19.9183 11.9445L18.5691 14.37L17.1432 16.7512C16.5844 17.6843 16.305 18.1509 15.8557 18.4103C15.4064 18.6697 14.8626 18.6784 13.7752 18.6957L11 18.74L8.22485 18.6957C7.13739 18.6784 6.59366 18.6697 6.14433 18.4103C5.695 18.1509 5.41562 17.6843 4.85687 16.7512L3.43095 14.37L2.0817 11.9445Z" stroke="#33363F" stroke-width="2"/>
<path d="M14 10C14 11.6569 12.6569 13 11 13C9.34316 13 8.00001 11.6569 8.00001 10C8.00001 8.34314 9.34316 7 11 7C12.6569 7 14 8.34314 14 10Z" stroke="#33363F" stroke-width="2"/>
</svg>
