<svg width="20" height="20" viewBox="0 0 20 20" fill="none" xmlns="http://www.w3.org/2000/svg">
<path d="M11.5 19C11.5 19.5523 11.9477 20 12.5 20C13.0523 20 13.5 19.5523 13.5 19H11.5ZM6.5 19C6.5 19.5523 6.94771 20 7.5 20C8.05228 20 8.5 19.5523 8.5 19H6.5ZM3.58578 18.4142L4.29289 17.7071L4.29289 17.7071L3.58578 18.4142ZM16.4142 18.4142L15.7071 17.7071L15.7071 17.7071L16.4142 18.4142ZM12.148 8.99947L12.1249 9.9992L12.148 8.99947ZM10.2123 7.27381L11.1987 7.10941L11.1987 7.10941L10.2123 7.27381ZM10.2296 7.37433L11.2119 7.18716L10.2296 7.37433ZM9.7877 7.27381L8.8013 7.10941L8.8013 7.10941L9.7877 7.27381ZM9.7704 7.37433L8.78807 7.18716L9.7704 7.37433ZM7.85199 8.99947L7.87511 9.9992L7.85199 8.99947ZM14.2877 7.27381L13.3013 7.10941L13.3013 7.10941L14.2877 7.27381ZM14.2704 7.37433L13.2881 7.18716L14.2704 7.37433ZM12.352 8.99947L12.3751 9.9992L12.352 8.99947ZM5.7123 7.27381L4.72591 7.43821L4.72591 7.43821L5.7123 7.27381ZM5.72959 7.37433L6.71192 7.18716L5.72959 7.37433ZM7.64801 8.99947L7.62488 9.9992L7.64801 8.99947ZM5.36924 6.78457L6.35563 6.94897L5.36924 6.78457ZM5.41878 6.54994L6.23097 7.13333L5.41878 6.54994ZM5.63076 6.78457L6.61715 6.62017L6.61715 6.62017L5.63076 6.78457ZM5.58122 6.54994L4.76903 7.13333L5.58122 6.54994ZM16.2405 8.94784L16.0136 9.92177L16.2405 8.94784ZM14.6308 6.78457L13.6444 6.94897L14.6308 6.78457ZM14.8475 7.76782L15.7709 7.38391L15.7709 7.38391L14.8475 7.76782ZM14.5812 6.54994L13.769 7.13333L14.5812 6.54994ZM14.3692 6.78457L15.3556 6.94897L15.3556 6.94897L14.3692 6.78457ZM14.4188 6.54994L15.231 7.13333L14.4188 6.54994ZM3.75951 8.94784L3.98639 9.92177L3.75951 8.94784ZM5.15249 7.76782L4.22912 7.38391L4.22912 7.38391L5.15249 7.76782ZM9.86924 6.78457L10.8556 6.94897L10.8556 6.94897L9.86924 6.78457ZM9.91878 6.54994L10.731 7.13333L9.91878 6.54994ZM10.1308 6.78457L9.14437 6.94897L9.14437 6.94897L10.1308 6.78457ZM10.0812 6.54994L9.26903 7.13333L10.0812 6.54994ZM1.41765 7.32938L0.44751 7.08685L1.41765 7.32938ZM1.28307 8.06776L2.28077 8L1.28307 8.06776ZM1.97306 8.95148L2.28077 8L2.28077 8L1.97306 8.95148ZM18.5823 7.32938L17.6122 7.57192L18.5823 7.32938ZM18.7169 8.06776L17.7192 8L18.7169 8.06776ZM18.0269 8.95148L17.7192 8L17.7192 8L18.0269 8.95148ZM17.3787 2.51493L18.3489 2.27239L17.3787 2.51493ZM2.62127 2.51493L3.59141 2.75746L2.62127 2.51493ZM8.5 14H11.5V12H8.5V14ZM11.5 14V19H13.5V14H11.5ZM6.5 14V19H8.5V14H6.5ZM11.5 14H13.5C13.5 12.8954 12.6046 12 11.5 12V14ZM8.5 12C7.39543 12 6.5 12.8954 6.5 14H8.5V12ZM16 9V15H18V9H16ZM13 18H7V20H13V18ZM4 15V9H2V15H4ZM7 18C6.02892 18 5.40121 17.9979 4.9387 17.9357C4.50496 17.8774 4.36902 17.7832 4.29289 17.7071L2.87868 19.1213C3.38834 19.631 4.01669 19.8297 4.67221 19.9179C5.29896 20.0021 6.08546 20 7 20V18ZM2 15C2 15.9145 1.99787 16.701 2.08214 17.3278C2.17027 17.9833 2.36902 18.6117 2.87868 19.1213L4.29289 17.7071C4.21677 17.631 4.12262 17.495 4.0643 17.0613C4.00212 16.5988 4 15.9711 4 15H2ZM16 15C16 15.9711 15.9979 16.5988 15.9357 17.0613C15.8774 17.495 15.7832 17.631 15.7071 17.7071L17.1213 19.1213C17.631 18.6117 17.8297 17.9833 17.9179 17.3278C18.0021 16.701 18 15.9145 18 15H16ZM13 20C13.9145 20 14.701 20.0021 15.3278 19.9179C15.9833 19.8297 16.6117 19.631 17.1213 19.1213L15.7071 17.7071C15.631 17.7832 15.495 17.8774 15.0613 17.9357C14.5988 17.9979 13.9711 18 13 18V20ZM4.56155 2H15.4384V0H4.56155V2ZM16.4086 2.75746L17.6122 7.57192L19.5525 7.08685L18.3489 2.27239L16.4086 2.75746ZM2.3878 7.57192L3.59141 2.75746L1.65112 2.27239L0.44751 7.08685L2.3878 7.57192ZM6.69869 7.10941L6.61715 6.62017L4.64437 6.94897L4.72591 7.43821L6.69869 7.10941ZM13.3828 6.62017L13.3013 7.10941L15.2741 7.43821L15.3556 6.94897L13.3828 6.62017ZM8.88284 6.62017L8.8013 7.10941L10.7741 7.43821L10.8556 6.94897L8.88284 6.62017ZM11.1987 7.10941L11.1172 6.62017L9.14437 6.94897L9.22591 7.43821L11.1987 7.10941ZM12.25 8C12.1921 8 12.1798 7.99993 12.1711 7.99973L12.1249 9.9992C12.1624 10.0001 12.2027 10 12.25 10V8ZM9.22591 7.43821C9.23367 7.48482 9.24024 7.52461 9.24727 7.56149L11.2119 7.18716C11.2103 7.17861 11.2082 7.16654 11.1987 7.10941L9.22591 7.43821ZM12.1711 7.99973C11.6998 7.98883 11.3002 7.65026 11.2119 7.18716L9.24727 7.56149C9.51196 8.95077 10.711 9.9665 12.1249 9.9992L12.1711 7.99973ZM8.8013 7.10941C8.79178 7.16654 8.7897 7.17861 8.78807 7.18716L10.7527 7.56149C10.7598 7.52461 10.7663 7.48482 10.7741 7.43821L8.8013 7.10941ZM7.75 10C7.79727 10 7.83758 10.0001 7.87511 9.9992L7.82887 7.99973C7.82016 7.99993 7.80789 8 7.75 8V10ZM8.78807 7.18716C8.69984 7.65026 8.30016 7.98883 7.82887 7.99973L7.87511 9.9992C9.289 9.9665 10.488 8.95077 10.7527 7.56149L8.78807 7.18716ZM13.3013 7.10941C13.2918 7.16654 13.2897 7.17861 13.2881 7.18716L15.2527 7.56149C15.2598 7.52461 15.2663 7.48482 15.2741 7.43821L13.3013 7.10941ZM12.25 10C12.2973 10 12.3376 10.0001 12.3751 9.9992L12.3289 7.99973C12.3202 7.99993 12.3079 8 12.25 8V10ZM13.2881 7.18716C13.1998 7.65026 12.8002 7.98883 12.3289 7.99973L12.3751 9.9992C13.789 9.9665 14.988 8.95077 15.2527 7.56149L13.2881 7.18716ZM4.72591 7.43821C4.73368 7.48485 4.74024 7.52461 4.74727 7.56149L6.71192 7.18716C6.71029 7.17861 6.70821 7.1665 6.69869 7.10941L4.72591 7.43821ZM7.75 8C7.69211 8 7.67984 7.99993 7.67113 7.99973L7.62488 9.9992C7.66242 10.0001 7.70273 10 7.75 10V8ZM4.74727 7.56149C5.01197 8.95077 6.21099 9.9665 7.62488 9.9992L7.67113 7.99973C7.19983 7.98883 6.80016 7.65026 6.71192 7.18716L4.74727 7.56149ZM6.35563 6.94897C6.36177 6.91214 6.36649 6.88383 6.3706 6.86003C6.3748 6.83568 6.37717 6.82306 6.37834 6.81721C6.38021 6.80793 6.37709 6.82562 6.36842 6.85524C6.36387 6.87077 6.35426 6.9019 6.33806 6.94114C6.32381 6.97568 6.29114 7.04956 6.23097 7.13333L4.60659 5.96654C4.49711 6.11896 4.45611 6.26894 4.44893 6.29347C4.43345 6.34639 4.42328 6.39459 4.41745 6.42363C4.40571 6.48213 4.39354 6.55598 4.38284 6.62017L6.35563 6.94897ZM6.61715 6.62017C6.60646 6.55598 6.59429 6.48213 6.58254 6.42363C6.57671 6.39459 6.56655 6.34639 6.55106 6.29347C6.54388 6.26893 6.50288 6.11896 6.39341 5.96654L4.76903 7.13333C4.70886 7.04956 4.67619 6.97568 4.66193 6.94114C4.64573 6.9019 4.63613 6.87077 4.63158 6.85524C4.62291 6.82562 4.61979 6.80793 4.62165 6.81721C4.62283 6.82306 4.62519 6.83568 4.6294 6.86003C4.63351 6.88383 4.63823 6.91214 4.64437 6.94897L6.61715 6.62017ZM6.23097 7.13333C5.87187 7.63326 5.12812 7.63326 4.76903 7.13333L6.39341 5.96654C5.95451 5.35552 5.04548 5.35552 4.60659 5.96654L6.23097 7.13333ZM17.2641 8C16.6761 8 16.5513 7.99348 16.4674 7.97392L16.0136 9.92177C16.3774 10.0065 16.7858 10 17.2641 10V8ZM13.6444 6.94897C13.7213 7.41049 13.7809 7.80715 13.9241 8.15172L15.7709 7.38391C15.7376 7.30395 15.7116 7.18662 15.6172 6.62017L13.6444 6.94897ZM16.4674 7.97392C16.1538 7.90086 15.8945 7.68125 15.7709 7.38391L13.9241 8.15172C14.295 9.04374 15.0727 9.70259 16.0136 9.92177L16.4674 7.97392ZM15.6172 6.62017C15.6065 6.55598 15.5943 6.48213 15.5825 6.42363C15.5767 6.39459 15.5666 6.34639 15.5511 6.29347C15.5439 6.26894 15.5029 6.11896 15.3934 5.96654L13.769 7.13333C13.7089 7.04956 13.6762 6.97568 13.6619 6.94114C13.6457 6.9019 13.6361 6.87077 13.6316 6.85524C13.6229 6.82562 13.6198 6.80793 13.6217 6.81721C13.6228 6.82306 13.6252 6.83568 13.6294 6.86003C13.6335 6.88383 13.6382 6.91214 13.6444 6.94897L15.6172 6.62017ZM15.3556 6.94897C15.3618 6.91214 15.3665 6.88383 15.3706 6.86003C15.3748 6.83568 15.3772 6.82306 15.3783 6.81721C15.3802 6.80793 15.3771 6.82562 15.3684 6.85524C15.3639 6.87077 15.3543 6.9019 15.3381 6.94114C15.3238 6.97568 15.2911 7.04956 15.231 7.13333L13.6066 5.96654C13.4971 6.11896 13.4561 6.26894 13.4489 6.29347C13.4334 6.34639 13.4233 6.39459 13.4175 6.42363C13.4057 6.48213 13.3935 6.55598 13.3828 6.62017L15.3556 6.94897ZM15.3934 5.96654C14.9545 5.35552 14.0455 5.35552 13.6066 5.96654L15.231 7.13333C14.8719 7.63326 14.1281 7.63326 13.769 7.13333L15.3934 5.96654ZM2.73591 10C3.21417 10 3.62259 10.0065 3.98639 9.92177L3.53263 7.97392C3.44866 7.99348 3.32393 8 2.73591 8V10ZM4.38284 6.62017C4.28843 7.18663 4.26236 7.30396 4.22912 7.38391L6.07586 8.15172C6.21912 7.80715 6.27871 7.41049 6.35563 6.94897L4.38284 6.62017ZM3.98639 9.92177C4.92725 9.70259 5.70499 9.04374 6.07586 8.15172L4.22912 7.38391C4.10549 7.68125 3.84625 7.90086 3.53263 7.97392L3.98639 9.92177ZM10.8556 6.94897C10.8618 6.91214 10.8665 6.88383 10.8706 6.86003C10.8748 6.83568 10.8772 6.82306 10.8783 6.81721C10.8802 6.80793 10.8771 6.82562 10.8684 6.85524C10.8639 6.87077 10.8543 6.9019 10.8381 6.94114C10.8238 6.97568 10.7911 7.04956 10.731 7.13333L9.10659 5.96654C8.99711 6.11896 8.95612 6.26894 8.94893 6.29347C8.93345 6.34639 8.92328 6.39459 8.91745 6.42363C8.90571 6.48213 8.89354 6.55598 8.88284 6.62017L10.8556 6.94897ZM11.1172 6.62017C11.1065 6.55598 11.0943 6.48213 11.0825 6.42363C11.0767 6.39459 11.0666 6.34639 11.0511 6.29347C11.0439 6.26893 11.0029 6.11896 10.8934 5.96654L9.26903 7.13333C9.20886 7.04956 9.17619 6.97568 9.16193 6.94114C9.14573 6.9019 9.13612 6.87077 9.13158 6.85524C9.12291 6.82562 9.11979 6.80793 9.12165 6.81721C9.12283 6.82306 9.12519 6.83568 9.1294 6.86003C9.13351 6.88383 9.13823 6.91214 9.14437 6.94897L11.1172 6.62017ZM10.731 7.13333C10.3719 7.63326 9.62812 7.63326 9.26903 7.13333L10.8934 5.96654C10.4545 5.35552 9.54549 5.35552 9.10659 5.96654L10.731 7.13333ZM0.44751 7.08685C0.401613 7.27043 0.357731 7.4447 0.328775 7.59218C0.299296 7.74232 0.271355 7.92914 0.285371 8.13552L2.28077 8C2.28411 8.04906 2.27503 8.06038 2.29131 7.9775C2.3081 7.89196 2.33685 7.7757 2.3878 7.57192L0.44751 7.08685ZM2.73591 8C2.52137 8 2.39761 7.9997 2.30765 7.99519C2.21911 7.99075 2.23243 7.98436 2.28077 8L1.66535 9.90296C1.86373 9.96711 2.0542 9.98499 2.20743 9.99268C2.35926 10.0003 2.54191 10 2.73591 10V8ZM0.285371 8.13552C0.34078 8.95138 0.887284 9.65133 1.66535 9.90296L2.28077 8L2.28077 8L0.285371 8.13552ZM17.6122 7.57192C17.6631 7.7757 17.6919 7.89196 17.7087 7.9775C17.725 8.06037 17.7159 8.04906 17.7192 8L19.7146 8.13552C19.7286 7.92914 19.7007 7.74232 19.6712 7.59218C19.6423 7.4447 19.5984 7.27044 19.5525 7.08685L17.6122 7.57192ZM17.2641 10C17.4581 10 17.6407 10.0003 17.7926 9.99268C17.9458 9.98499 18.1363 9.96711 18.3346 9.90296L17.7192 8C17.7676 7.98436 17.7809 7.99075 17.6923 7.99519C17.6024 7.9997 17.4786 8 17.2641 8V10ZM17.7192 8L17.7192 8L18.3346 9.90296C19.1127 9.65133 19.6592 8.95138 19.7146 8.13552L17.7192 8ZM15.4384 2C15.8378 2 16.049 2.00166 16.1973 2.0194C16.3189 2.03394 16.2806 2.04789 16.2192 2L17.45 0.423589C17.1174 0.1639 16.7559 0.0719523 16.4348 0.0335481C16.1403 -0.00166232 15.7891 0 15.4384 0V2ZM18.3489 2.27239C18.2638 1.93223 18.1803 1.59106 18.0747 1.31394C17.9595 1.01168 17.7826 0.683278 17.45 0.423589L16.2192 2C16.1579 1.95211 16.1621 1.91149 16.2057 2.02596C16.2589 2.16557 16.3117 2.37006 16.4086 2.75746L18.3489 2.27239ZM4.56155 0C4.21092 0 3.85967 -0.00166232 3.56521 0.0335481C3.24405 0.0719523 2.88255 0.1639 2.54995 0.423589L3.78077 2C3.71943 2.04789 3.68105 2.03394 3.80268 2.0194C3.95102 2.00166 4.16223 2 4.56155 2V0ZM3.59141 2.75746C3.68826 2.37006 3.7411 2.16556 3.79428 2.02596C3.83789 1.91149 3.84212 1.95211 3.78077 2L2.54995 0.423589C2.21735 0.683278 2.04047 1.01168 1.92532 1.31394C1.81974 1.59106 1.73616 1.93223 1.65112 2.27239L3.59141 2.75746Z" fill="#33363F"/>
</svg>
