<svg width="18" height="16" viewBox="0 0 18 16" fill="none" xmlns="http://www.w3.org/2000/svg">
<path d="M11 0H4.5C3.10218 0 2.40326 0 1.85195 0.228361C1.11687 0.532843 0.532843 1.11687 0.228361 1.85195C0 2.40326 0 3.10218 0 4.5V5.25C0 5.66421 0.335786 6 0.75 6H1C2.10457 6 3 6.89543 3 8C3 9.10457 2.10457 10 1 10H0.75C0.335786 10 0 10.3358 0 10.75V11.5C0 12.8978 0 13.5967 0.228361 14.1481C0.532843 14.8831 1.11687 15.4672 1.85195 15.7716C2.40326 16 3.10218 16 4.5 16H11V15C11 14.4477 11.4477 14 12 14V12C11.4477 12 11 11.5523 11 11V10C11 9.44771 11.4477 9 12 9V7C11.4477 7 11 6.55228 11 6V5C11 4.44772 11.4477 4 12 4V2C11.4477 2 11 1.55228 11 1V0Z" fill="#222222"/>
<path d="M12 2V4C12.5523 4 13 4.44772 13 5V6C13 6.55228 12.5523 7 12 7V9C12.5523 9 13 9.44771 13 10V11C13 11.5523 12.5523 12 12 12V14C12.5523 14 13 14.4477 13 15V16H13.5C14.8978 16 15.5967 16 16.1481 15.7716C16.8831 15.4672 17.4672 14.8831 17.7716 14.1481C18 13.5967 18 12.8978 18 11.5V10.75C18 10.3358 17.6642 10 17.25 10H17C15.8954 10 15 9.10457 15 8C15 6.89543 15.8954 6 17 6H17.25C17.6642 6 18 5.66421 18 5.25V4.5C18 3.10218 18 2.40326 17.7716 1.85195C17.4672 1.11687 16.8831 0.532843 16.1481 0.228361C15.5967 0 14.8978 0 13.5 0H13V1C13 1.55228 12.5523 2 12 2Z" fill="#222222"/>
</svg>
