<svg width="20" height="18" viewBox="0 0 20 18" fill="none" xmlns="http://www.w3.org/2000/svg">
<path d="M11 6V7M11 1V2M11 11V12M11 16V17M1 4.2C1 3.0799 1 2.51984 1.21799 2.09202C1.40973 1.71569 1.71569 1.40973 2.09202 1.21799C2.51984 1 3.0799 1 4.2 1H15.8C16.9201 1 17.4802 1 17.908 1.21799C18.2843 1.40973 18.5903 1.71569 18.782 2.09202C19 2.51984 19 3.0799 19 4.2V6.76923C19 6.89668 18.8967 7 18.7692 7H18C16.8954 7 16 7.89543 16 9C16 10.1046 16.8954 11 18 11H18.7692C18.8967 11 19 11.1033 19 11.2308V13.8C19 14.9201 19 15.4802 18.782 15.908C18.5903 16.2843 18.2843 16.5903 17.908 16.782C17.4802 17 16.9201 17 15.8 17H4.2C3.0799 17 2.51984 17 2.09202 16.782C1.71569 16.5903 1.40973 16.2843 1.21799 15.908C1 15.4802 1 14.9201 1 13.8V11.2308C1 11.1033 1.10332 11 1.23077 11H2C3.10457 11 4 10.1046 4 9C4 7.89543 3.10457 7 2 7H1.23077C1.10332 7 1 6.89668 1 6.76923V4.2Z" stroke="#33363F" stroke-width="2" stroke-linecap="round"/>
</svg>
